<svg width="82" height="82" fill="none" xmlns="http://www.w3.org/2000/svg"><g opacity=".9"><rect x=".63" y=".63" width="80.741" height="80.741" rx="6.296" fill="#F9F9F9"/><rect x=".63" y=".63" width="80.741" height="80.741" rx="6.296" stroke="#E2E2E2" stroke-width=".741"/><path d="M75.074 59.233H59.52M5.444 59.233H19.52" stroke="#ABABAB" stroke-width=".741" stroke-miterlimit="10" stroke-linecap="round"/><g opacity=".15"><path stroke="url(#prefix__paint0_linear_1586_29304)" stroke-opacity=".5" stroke-width=".426" d="M33.979 1.428V81"/><path stroke="url(#prefix__paint1_linear_1586_29304)" stroke-opacity=".5" stroke-width=".426" d="M27.592 1.428V81"/><path stroke="url(#prefix__paint2_linear_1586_29304)" stroke-opacity=".5" stroke-width=".426" d="M20.361 1.428V81"/><path stroke="url(#prefix__paint3_linear_1586_29304)" stroke-opacity=".5" stroke-width=".426" d="M13.552 1.428V81"/><path stroke="url(#prefix__paint4_linear_1586_29304)" stroke-opacity=".5" stroke-width=".426" d="M7.172 1.428V81"/><path stroke="url(#prefix__paint5_linear_1586_29304)" stroke-opacity=".5" stroke-width=".426" d="M74.401 1.428V81"/><path stroke="url(#prefix__paint6_linear_1586_29304)" stroke-opacity=".5" stroke-width=".426" d="M68.021 1.428V81"/><path stroke="url(#prefix__paint7_linear_1586_29304)" stroke-opacity=".5" stroke-width=".426" d="M61.211 1.428V81"/><path stroke="url(#prefix__paint8_linear_1586_29304)" stroke-opacity=".5" stroke-width=".426" d="M53.979 1.428V81"/><path stroke="url(#prefix__paint9_linear_1586_29304)" stroke-opacity=".5" stroke-width=".426" d="M47.592 1.428V81"/><path stroke="url(#prefix__paint10_linear_1586_29304)" stroke-opacity=".5" stroke-width=".426" d="M40.782 1.428V81"/><path stroke="url(#prefix__paint11_linear_1586_29304)" stroke-width=".426" d="M.998 47.775h80"/><path stroke="url(#prefix__paint12_linear_1586_29304)" stroke-width=".426" d="M.998 54.119h80"/><path stroke="url(#prefix__paint13_linear_1586_29304)" stroke-width=".426" d="M.998 61.316h80"/><path stroke="url(#prefix__paint14_linear_1586_29304)" stroke-width=".426" d="M.998 68.089h80"/><path stroke="url(#prefix__paint15_linear_1586_29304)" stroke-width=".426" d="M.998 74.435h80"/><path stroke="url(#prefix__paint16_linear_1586_29304)" stroke-width=".426" d="M.998 7.568h80"/><path stroke="url(#prefix__paint17_linear_1586_29304)" stroke-width=".426" d="M.998 13.913h80"/><path stroke="url(#prefix__paint18_linear_1586_29304)" stroke-width=".426" d="M.998 20.682h80"/><path stroke="url(#prefix__paint19_linear_1586_29304)" stroke-width=".426" d="M.998 27.878h80"/><path stroke="url(#prefix__paint20_linear_1586_29304)" stroke-width=".426" d="M.998 34.231h80"/><path stroke="url(#prefix__paint21_linear_1586_29304)" stroke-width=".426" d="M.998 40.997h80"/></g><path d="M40.644 30.096s.671-4.176 6.267-6.404a.984.984 0 011.312.68c.357 1.482.655 4.395-1.03 7.757" fill="#fff"/><path d="M40.644 30.096s.671-4.176 6.267-6.404a.984.984 0 011.312.68c.357 1.482.655 4.395-1.03 7.757" stroke="#ABABAB" stroke-width=".917" stroke-miterlimit="10"/><path d="M45.739 26.996s-1.697 1.956-2.098 4.023" stroke="#ABABAB" stroke-width=".917" stroke-miterlimit="10" stroke-linecap="round"/><path d="M45.492 39.867h13.544s3.191-2.178 2.014-5.54c0 0 3.647-5.406.474-8.864-.721-.783-1.69-1.318-2.716-1.585-1.729-.44-5.547-.115-6.99 3.725 0 0-5.566.248-4.863 6.19 0 0-4.028 1.833-1.463 6.055v.019z" fill="#fff" stroke="#ABABAB" stroke-width=".917" stroke-miterlimit="10"/><path d="M58.351 27.552l-7.598 9.99M53.815 28.6l.227.802.228.802.456 1.605M55.07 36.22h-3.287l-.55-3.668M58.331 31.796h-3.21" stroke="#ABABAB" stroke-width=".917" stroke-miterlimit="10" stroke-linecap="round"/><g filter="url(#prefix__filter0_dd_1586_29304)"><path d="M34.79 33.339a6.74 6.74 0 0112.89 3.943 6.74 6.74 0 11-12.89-3.943z" fill="#EEE"/><path d="M39.396 41.32a6.285 6.285 0 113.677-12.02 6.285 6.285 0 01-3.677 12.02z" stroke="#ABABAB" stroke-width=".909"/></g><path opacity=".33" d="M28.809 43.34c4.133 0 7.484-3.37 7.484-7.527s-3.35-7.527-7.484-7.527-7.485 3.37-7.485 7.527c0 4.156 3.351 7.526 7.485 7.526z" fill="#D5D5D5"/><path d="M21.459 28.958a9.596 9.596 0 017.313-3.362 9.65 9.65 0 017.39 3.457M19.316 36.661a8.595 8.595 0 01-.133-1.585c0-.593.057-1.166.152-1.72M24.328 21.26s4.255.592 4.75 6.304" stroke="#ABABAB" stroke-width=".917" stroke-miterlimit="10" stroke-linecap="round"/><path d="M28.334 24.66s1.637-4.983 6.69-5.384c.778-.077 1.443.573 1.443 1.356 0 1.433-.596 3.94-3.294 5.812M64.11 58.864v2.847c0 1.089-.76 1.967-1.406 1.967H17.78c-.665 0-1.33-.878-1.33-1.967v-2.847" stroke="#ABABAB" stroke-width=".917" stroke-miterlimit="10"/><path d="M64.698 36.838H15.86c-1.14 0-2.09.917-2.09 2.063v18.492a2.07 2.07 0 002.09 2.063h48.82c1.14 0 2.089-.917 2.089-2.063V38.9a2.07 2.07 0 00-2.09-2.063h.02z" fill="#fff" stroke="#ABABAB" stroke-width=".917" stroke-miterlimit="10"/><path d="M13.793 44.22h52.98" stroke="#ABABAB" stroke-width=".917" stroke-miterlimit="10"/><path d="M50.435 51.51H65.97M14.698 51.51h29.428" stroke="#ABABAB" stroke-width=".917" stroke-miterlimit="10" stroke-linecap="round"/></g><defs><linearGradient id="prefix__paint0_linear_1586_29304" x1="33.767" y1="1.428" x2="33.767" y2="81" gradientUnits="userSpaceOnUse"><stop stop-color="#fff" stop-opacity="0"/><stop offset=".495" stop-color="#AEAEAE"/><stop offset="1" stop-color="#fff" stop-opacity="0"/></linearGradient><linearGradient id="prefix__paint1_linear_1586_29304" x1="27.379" y1="1.428" x2="27.379" y2="81" gradientUnits="userSpaceOnUse"><stop stop-color="#fff" stop-opacity="0"/><stop offset=".495" stop-color="#AEAEAE"/><stop offset="1" stop-color="#fff" stop-opacity="0"/></linearGradient><linearGradient id="prefix__paint2_linear_1586_29304" x1="20.148" y1="1.428" x2="20.148" y2="81" gradientUnits="userSpaceOnUse"><stop stop-color="#fff" stop-opacity="0"/><stop offset=".495" stop-color="#AEAEAE"/><stop offset="1" stop-color="#fff" stop-opacity="0"/></linearGradient><linearGradient id="prefix__paint3_linear_1586_29304" x1="13.339" y1="1.428" x2="13.339" y2="81" gradientUnits="userSpaceOnUse"><stop stop-color="#fff" stop-opacity="0"/><stop offset=".495" stop-color="#AEAEAE"/><stop offset="1" stop-color="#fff" stop-opacity="0"/></linearGradient><linearGradient id="prefix__paint4_linear_1586_29304" x1="6.959" y1="1.428" x2="6.959" y2="81" gradientUnits="userSpaceOnUse"><stop stop-color="#fff" stop-opacity="0"/><stop offset=".495" stop-color="#AEAEAE"/><stop offset="1" stop-color="#fff" stop-opacity="0"/></linearGradient><linearGradient id="prefix__paint5_linear_1586_29304" x1="74.189" y1="1.428" x2="74.189" y2="81" gradientUnits="userSpaceOnUse"><stop stop-color="#fff" stop-opacity="0"/><stop offset=".495" stop-color="#AEAEAE"/><stop offset="1" stop-color="#fff" stop-opacity="0"/></linearGradient><linearGradient id="prefix__paint6_linear_1586_29304" x1="67.809" y1="1.428" x2="67.809" y2="81" gradientUnits="userSpaceOnUse"><stop stop-color="#fff" stop-opacity="0"/><stop offset=".495" stop-color="#AEAEAE"/><stop offset="1" stop-color="#fff" stop-opacity="0"/></linearGradient><linearGradient id="prefix__paint7_linear_1586_29304" x1="60.998" y1="1.428" x2="60.998" y2="81" gradientUnits="userSpaceOnUse"><stop stop-color="#fff" stop-opacity="0"/><stop offset=".495" stop-color="#AEAEAE"/><stop offset="1" stop-color="#fff" stop-opacity="0"/></linearGradient><linearGradient id="prefix__paint8_linear_1586_29304" x1="53.767" y1="1.428" x2="53.767" y2="81" gradientUnits="userSpaceOnUse"><stop stop-color="#fff" stop-opacity="0"/><stop offset=".495" stop-color="#AEAEAE"/><stop offset="1" stop-color="#fff" stop-opacity="0"/></linearGradient><linearGradient id="prefix__paint9_linear_1586_29304" x1="47.379" y1="1.428" x2="47.379" y2="81" gradientUnits="userSpaceOnUse"><stop stop-color="#fff" stop-opacity="0"/><stop offset=".495" stop-color="#AEAEAE"/><stop offset="1" stop-color="#fff" stop-opacity="0"/></linearGradient><linearGradient id="prefix__paint10_linear_1586_29304" x1="40.569" y1="1.428" x2="40.569" y2="81" gradientUnits="userSpaceOnUse"><stop stop-color="#fff" stop-opacity="0"/><stop offset=".495" stop-color="#AEAEAE"/><stop offset="1" stop-color="#fff" stop-opacity="0"/></linearGradient><linearGradient id="prefix__paint11_linear_1586_29304" x1=".998" y1="47.987" x2="80.998" y2="47.987" gradientUnits="userSpaceOnUse"><stop stop-color="#fff" stop-opacity="0"/><stop offset=".495" stop-color="#E8E8E8"/><stop offset="1" stop-color="#F1F1F1" stop-opacity="0"/></linearGradient><linearGradient id="prefix__paint12_linear_1586_29304" x1=".998" y1="54.332" x2="80.998" y2="54.332" gradientUnits="userSpaceOnUse"><stop stop-color="#fff" stop-opacity="0"/><stop offset=".495" stop-color="#E8E8E8"/><stop offset="1" stop-color="#F1F1F1" stop-opacity="0"/></linearGradient><linearGradient id="prefix__paint13_linear_1586_29304" x1=".998" y1="61.528" x2="80.998" y2="61.528" gradientUnits="userSpaceOnUse"><stop stop-color="#fff" stop-opacity="0"/><stop offset=".495" stop-color="#E8E8E8"/><stop offset="1" stop-color="#F1F1F1" stop-opacity="0"/></linearGradient><linearGradient id="prefix__paint14_linear_1586_29304" x1=".998" y1="68.302" x2="80.998" y2="68.302" gradientUnits="userSpaceOnUse"><stop stop-color="#fff" stop-opacity="0"/><stop offset=".495" stop-color="#E8E8E8"/><stop offset="1" stop-color="#F1F1F1" stop-opacity="0"/></linearGradient><linearGradient id="prefix__paint15_linear_1586_29304" x1=".998" y1="74.647" x2="80.998" y2="74.647" gradientUnits="userSpaceOnUse"><stop stop-color="#fff" stop-opacity="0"/><stop offset=".495" stop-color="#E8E8E8"/><stop offset="1" stop-color="#F1F1F1" stop-opacity="0"/></linearGradient><linearGradient id="prefix__paint16_linear_1586_29304" x1=".998" y1="7.78" x2="80.998" y2="7.78" gradientUnits="userSpaceOnUse"><stop stop-color="#fff" stop-opacity="0"/><stop offset=".495" stop-color="#E8E8E8"/><stop offset="1" stop-color="#F1F1F1" stop-opacity="0"/></linearGradient><linearGradient id="prefix__paint17_linear_1586_29304" x1=".998" y1="14.126" x2="80.998" y2="14.126" gradientUnits="userSpaceOnUse"><stop stop-color="#fff" stop-opacity="0"/><stop offset=".495" stop-color="#E8E8E8"/><stop offset="1" stop-color="#F1F1F1" stop-opacity="0"/></linearGradient><linearGradient id="prefix__paint18_linear_1586_29304" x1=".998" y1="20.895" x2="80.998" y2="20.895" gradientUnits="userSpaceOnUse"><stop stop-color="#fff" stop-opacity="0"/><stop offset=".495" stop-color="#E8E8E8"/><stop offset="1" stop-color="#F1F1F1" stop-opacity="0"/></linearGradient><linearGradient id="prefix__paint19_linear_1586_29304" x1=".998" y1="28.091" x2="80.998" y2="28.091" gradientUnits="userSpaceOnUse"><stop stop-color="#fff" stop-opacity="0"/><stop offset=".495" stop-color="#E8E8E8"/><stop offset="1" stop-color="#F1F1F1" stop-opacity="0"/></linearGradient><linearGradient id="prefix__paint20_linear_1586_29304" x1=".998" y1="34.443" x2="80.998" y2="34.443" gradientUnits="userSpaceOnUse"><stop stop-color="#fff" stop-opacity="0"/><stop offset=".495" stop-color="#E8E8E8"/><stop offset="1" stop-color="#F1F1F1" stop-opacity="0"/></linearGradient><linearGradient id="prefix__paint21_linear_1586_29304" x1=".998" y1="41.21" x2="80.998" y2="41.21" gradientUnits="userSpaceOnUse"><stop stop-color="#fff" stop-opacity="0"/><stop offset=".495" stop-color="#E8E8E8"/><stop offset="1" stop-color="#F1F1F1" stop-opacity="0"/></linearGradient><filter id="prefix__filter0_dd_1586_29304" x="21.705" y="15.78" width="39.06" height="39.06" filterUnits="userSpaceOnUse" color-interpolation-filters="sRGB"><feFlood flood-opacity="0" result="BackgroundImageFix"/><feColorMatrix in="SourceAlpha" values="0 0 0 0 0 0 0 0 0 0 0 0 0 0 0 0 0 0 127 0" result="hardAlpha"/><feOffset/><feGaussianBlur stdDeviation="5.557"/><feComposite in2="hardAlpha" operator="out"/><feColorMatrix values="0 0 0 0 0.517647 0 0 0 0 0.517647 0 0 0 0 0.517647 0 0 0 0.15 0"/><feBlend in2="BackgroundImageFix" result="effect1_dropShadow_1586_29304"/><feColorMatrix in="SourceAlpha" values="0 0 0 0 0 0 0 0 0 0 0 0 0 0 0 0 0 0 127 0" result="hardAlpha"/><feOffset dx=".794" dy=".794"/><feGaussianBlur stdDeviation=".794"/><feComposite in2="hardAlpha" operator="out"/><feColorMatrix values="0 0 0 0 0.517647 0 0 0 0 0.517647 0 0 0 0 0.517647 0 0 0 0.25 0"/><feBlend in2="effect1_dropShadow_1586_29304" result="effect2_dropShadow_1586_29304"/><feBlend in="SourceGraphic" in2="effect2_dropShadow_1586_29304" result="shape"/></filter></defs></svg>
